<?xml version="1.0" encoding="UTF-8" standalone="no"?>
<svg
   xmlns:dc="http://purl.org/dc/elements/1.1/"
   xmlns:cc="http://creativecommons.org/ns#"
   xmlns:rdf="http://www.w3.org/1999/02/22-rdf-syntax-ns#"
   xmlns:svg="http://www.w3.org/2000/svg"
   xmlns="http://www.w3.org/2000/svg"
   xmlns:sodipodi="http://sodipodi.sourceforge.net/DTD/sodipodi-0.dtd"
   xmlns:inkscape="http://www.inkscape.org/namespaces/inkscape"
   viewBox="0 0 160.84879 43.320297"
   height="43.320297"
   width="160.84879"
   xml:space="preserve"
   version="1.1"
   id="svg2"
   inkscape:version="0.91 r13725"
   sodipodi:docname="Logo_Mono_White.svg"
   inkscape:export-filename="\\ararat\business\System Horizons Ltd\Branding\System Horizons Logo\Logo_PNG_7630x2055px.png"
   inkscape:export-xdpi="1199.91"
   inkscape:export-ydpi="1199.91"><sodipodi:namedview
     pagecolor="#ffffff"
     bordercolor="#666666"
     borderopacity="1"
     objecttolerance="10"
     gridtolerance="10"
     guidetolerance="10"
     inkscape:pageopacity="0"
     inkscape:pageshadow="2"
     inkscape:window-width="1280"
     inkscape:window-height="971"
     id="namedview4122"
     showgrid="false"
     inkscape:zoom="3.1363048"
     inkscape:cx="83.910029"
     inkscape:cy="-16.706166"
     inkscape:window-x="-8"
     inkscape:window-y="-8"
     inkscape:window-maximized="1"
     inkscape:current-layer="svg2"
     fit-margin-top="0"
     fit-margin-left="0"
     fit-margin-right="0"
     fit-margin-bottom="0" /><metadata
     id="metadata8"><rdf:RDF><cc:Work
         rdf:about=""><dc:format>image/svg+xml</dc:format><dc:type
           rdf:resource="http://purl.org/dc/dcmitype/StillImage" /><dc:title></dc:title></cc:Work></rdf:RDF></metadata><defs
     id="defs6" /><g
     id="g4138"
     transform="matrix(0.28105991,0,0,0.28105991,-0.08357703,19.997413)"
     style="fill:#ffffff"><path
       inkscape:connector-curvature="0"
       d="m 78.8945,82.9624 c -0.50925,0.01 -1.019,0.0195 -1.53125,0.0195 -29.1635,0 -54.542,-16.20118 -67.6313125,-40.09181 l 41.7465625,0 c 14.871125,0 22.317375,-5.05075 22.317375,-15.145995 l 0,-2.17475 c 0,-9.6045 -7.003375,-14.396 -20.991125,-14.396 l -17.457125,0 c -3.534625,0 -5.745125,-0.05087 -6.645,-0.154375 -3.315875,-0.32225 -4.981,-1.2055 -4.981,-2.616125 l 0,-2.143125 c 0,-1.474125 3.622625,-2.227 10.878,-2.227 l 44.294875,0 0,78.92965"
       style="fill:#ffffff;fill-opacity:1;fill-rule:evenodd;stroke:none"
       id="path14" /><path
       inkscape:connector-curvature="0"
       d="M 134.375,57.771 C 123.48,69.74125 108.86325,78.26416 92.357875,81.51904 l 0,-77.28129 31.257875,0 c 7.17175,0 10.75925,1.682625 10.75925,5.03075 l 0,48.5025"
       style="fill:#ffffff;fill-opacity:1;fill-rule:evenodd;stroke:none"
       id="path16" /><path
       inkscape:connector-curvature="0"
       d="M 92.357875,-69.68625 C 127.7425,-62.71 154.43,-31.513125 154.43,5.9165 c 0,11.11525 -2.35875,21.67775 -6.59375,31.22212 l 0,-27.988745 c 0,-7.034625 -3.27125,-11.794875 -9.8075,-14.295375 -4.03625,-1.544 -10.2825,-2.34475 -18.78162,-2.34475 l -26.889255,0 0,-62.196"
       style="fill:#ffffff;fill-opacity:1;fill-rule:evenodd;stroke:none"
       id="path18" /><path
       inkscape:connector-curvature="0"
       d="m 77.36325,-71.15 c 0.51225,0 1.022,0.01 1.53125,0.02 l 0,63.230625 -44.735375,0 c -6.901375,0 -12.1035,0.671875 -15.587375,1.98975 -5.5385,2.09425 -8.311987,6.017 -8.311987,11.762125 l 0,2.601125 c 0,9.7725 8.364737,14.651875 25.087862,14.651875 l 17.098625,0 c 4.98,0 7.479,0.952125 7.479,2.837375 l 0,1.785625 c 0,2.22613 -2.786625,3.33113 -8.378875,3.33113 l -47.050775,0 C 1.77735,23.17875 0.29736375,14.72125 0.29736375,5.9165 0.29736375,-36.6455 34.80175,-71.15 77.36325,-71.15"
       style="fill:#ffffff;fill-opacity:1;fill-rule:evenodd;stroke:none"
       id="path20" /><path
       inkscape:connector-curvature="0"
       d="m 245.95,-8.36375 c 0,3.3115 -0.48375,5.850625 -1.45,7.6035 -2.4275,4.441875 -9.53375,6.663625 -21.3175,6.663625 l -35.515,0 0,-9.851125 37.17125,0 c 6.4575,0 9.68625,-1.27 9.68625,-3.82325 l 0,-3.420875 c 0,-2.7325 -3.6575,-4.098625 -10.98375,-4.098625 l -15.79875,0 c -4.9525,0 -9.28625,-0.938 -13.01,-2.800375 -4.70625,-2.345625 -7.065,-5.754375 -7.065,-10.210375 l 0,-3.726125 c 0,-5.86425 2.8275,-9.811375 8.47125,-11.865125 3.4775,-1.29875 8.76125,-1.94625 15.8675,-1.94625 l 7.79625,0 0,9.685 -9.14875,0 c -7.7125,0 -11.5625,1.33875 -11.5625,4.0165 l 0,3.048375 c 0,2.524875 4.08375,3.78125 12.23875,3.78125 l 12.005,0 c 5.725,0 10.56875,0.84175 14.5025,2.51125 5.4075,2.29 8.1125,5.90575 8.1125,10.8725 0.0138,0.373125 0.0138,0.965875 0,1.78075 0,0.800375 0,1.393125 0,1.779375 z m 75.42125,-38.30375 -32.1225,30.94975 0,21.538 -11.425,0 0,-21.51025 -32.37,-30.9775 15.45375,0 22.55875,21.67725 22.755,-21.67725 15.15,0 z m 57.09625,38.30375 c 0,3.3115 -0.48375,5.850625 -1.45,7.6035 C 374.59,3.681625 367.48375,5.903375 355.7,5.903375 l -35.51625,0 0,-9.851125 37.1725,0 c 6.4575,0 9.68625,-1.27 9.68625,-3.82325 l 0,-3.420875 c 0,-2.7325 -3.6575,-4.098625 -10.98375,-4.098625 l -15.79875,0 c -4.9525,0 -9.28625,-0.938 -13.01125,-2.800375 -4.705,-2.345625 -7.065,-5.754375 -7.065,-10.210375 l 0,-3.726125 c 0,-5.86425 2.82875,-9.811375 8.4725,-11.865125 3.4775,-1.29875 8.76125,-1.94625 15.8675,-1.94625 l 7.795,0 0,9.685 -9.14625,0 c -7.71375,0 -11.5625,1.33875 -11.5625,4.0165 l 0,3.048375 c 0,2.524875 4.0825,3.78125 12.23875,3.78125 l 12.0025,0 c 5.72625,0 10.57,0.84175 14.5025,2.51125 5.41,2.29 8.11375,5.90575 8.11375,10.8725 0.0138,0.373125 0.0138,0.965875 0,1.78075 0,0.800375 0,1.393125 0,1.779375 z m 40.745,-28.037625 -23.16625,0 0,42.221625 -11.425,0 0,-42.221625 -23.0975,0 0,-9.686125 57.68875,0 0,9.686125 z m 61.305,41.974125 -36.5375,0 c -5.34,0 -9.9475,-0.911625 -13.825,-2.746625 -4.98125,-2.427625 -7.47875,-6.015625 -7.47875,-10.7485 l 0,-24.421875 c 0,-4.898875 2.59375,-8.555125 7.76875,-10.957 3.95875,-1.86125 8.72,-2.78625 14.30875,-2.78625 l 11.59,0 0,9.686125 -11.025,0 c -7.53375,0 -11.3,1.338375 -11.3,4.015125 l 0,7.40975 46.49875,0 0,9.8515 -46.49875,0 0,6.857375 c 0,2.664125 3.435,3.988875 10.32,3.988875 l 36.17875,0 0,9.8515 z m 89.48,0.2475 -11.425,0 0,-33.1005 -24.325,29.9965 c -1.7525,2.124625 -3.96,3.187125 -6.6375,3.187125 -2.7175,0 -4.95375,-1.07675 -6.705,-3.229 l -24.755,-30.162125 0,33.2675 -11.425,0.0405 0,-46.002875 c 0,-1.779875 0.58125,-3.173625 1.72625,-4.208625 1.145,-1.02 2.62,-1.53 4.42875,-1.53 2.6075,0 4.6775,0.91 6.22375,2.745 l 30.575,36.247 29.86,-36.302 c 1.545,-1.79375 3.5725,-2.69 6.08375,-2.69 1.8775,0 3.395,0.56375 4.59625,1.71 1.18625,1.14625 1.77875,2.63625 1.77875,4.471 l 0,45.5605"
       style="fill:#ffffff;fill-opacity:1;fill-rule:nonzero;stroke:none"
       id="path22" /><path
       inkscape:connector-curvature="0"
       d="m 240.28625,58.43312 -9.35,0 0,-17.26762 -33.85125,0 0,17.233 -9.42,0.0346 0,-43.06587 9.42,0 0,17.67713 33.85125,0 0,-17.67713 9.35,0 0,43.06587 z m 55.4075,-12.1035 c 0,7.92863 -6.6075,11.89838 -19.82625,11.89838 l -11.53375,0 c -5.175,0 -9.44125,-0.71675 -12.7975,-2.16063 -4.64125,-2.00199 -6.96,-5.23237 -6.96,-9.70412 l 0,-18.722125 c 0,-7.997625 6.585,-12.001 19.7575,-12.001 l 11.53375,0 c 5.8475,0 10.215,0.6025 13.1275,1.797375 4.46875,1.819875 6.69875,5.22075 6.69875,10.203625 l 0,18.688505 z m -9.4175,-0.19337 0,-18.36962 c 0,-2.76413 -3.4125,-4.14163 -10.2275,-4.14163 l -11.72625,0 c -6.88125,0 -10.32875,1.3775 -10.32875,4.14163 l 0,18.36962 c 0,2.65137 3.4475,3.97063 10.32875,3.97063 l 11.76125,0 c 6.79125,0 10.1925,-1.31926 10.1925,-3.97063 z m 65.66625,12.36475 -17.11875,0 -25.9,-14.42388 0,14.42388 -9.41875,0 0,-42.860875 33.385,0 c 4.92625,0 8.98625,0.682625 12.16,2.058625 4.40125,1.888125 6.5975,4.94775 6.5975,9.191875 l 0,4.890625 c 0,3.99263 -2.01375,6.92725 -6.05125,8.793 -3.015,1.39887 -6.79,2.09225 -11.3175,2.09225 l -10.91,0 28.57375,15.8345 z m -9.71375,-26.6285 0,-5.164 c 0,-2.058625 -2.74125,-3.0835 -8.22375,-3.0835 l -25.08125,0 0,11.05662 26.75375,0 c 4.3675,0 6.55125,-0.93212 6.55125,-2.80912 z m 22.4075,26.56063 -9.4175,0 0,-43.06588 9.4175,0 0,43.06588 z M 464.85,46.32963 c 0,7.92862 -6.6075,11.89837 -19.82625,11.89837 l -11.53375,0 c -5.175,0 -9.44,-0.71675 -12.7975,-2.16063 -4.64,-2.00199 -6.96,-5.23237 -6.96,-9.70412 l 0,-18.722125 c 0,-7.997625 6.585,-12.001 19.7575,-12.001 l 11.53375,0 c 5.8475,0 10.21625,0.6025 13.1275,1.797375 4.47,1.819875 6.69875,5.22075 6.69875,10.203625 l 0,18.688505 z m -9.4175,-0.19338 0,-18.36962 c 0,-2.76413 -3.4125,-4.14163 -10.22625,-4.14163 l -11.7275,0 c -6.88125,0 -10.32875,1.3775 -10.32875,4.14163 l 0,18.36962 c 0,2.65138 3.4475,3.97063 10.32875,3.97063 l 11.76125,0 c 6.79125,0 10.1925,-1.31925 10.1925,-3.97063 z m 65.37125,6.73438 c 0,3.75337 -1.5475,5.63037 -4.63,5.63037 -1.8425,0 -3.61625,-0.76225 -5.3225,-2.27488 l -32.9075,-27.94825 0,30.22313 -9.41875,-0.0337 0,-37.731375 c 0,-3.6285 1.50125,-5.437 4.4925,-5.437 2.025,0 3.98125,0.807625 5.87125,2.434 l 32.4975,27.572745 0,-30.006745 9.4175,0 0,37.571745 z m 51.77875,-6.13188 c 0,2.731 -0.39875,4.82425 -1.195,6.26862 -2.00125,3.6625 -7.85875,5.49363 -17.57375,5.49363 l -29.27875,0 0,-8.12113 30.64375,0 c 5.32375,0 7.985,-1.04637 7.985,-3.15087 l 0,-2.82175 c 0,-2.252 -3.01375,-3.3785 -9.05375,-3.3785 l -13.025,0 c -4.0825,0 -7.655,-0.77337 -10.7275,-2.309 -3.8775,-1.93363 -5.8225,-4.74325 -5.8225,-8.417 l 0,-3.070875 c 0,-4.835375 2.33125,-8.088375 6.98375,-9.783125 2.8675,-1.069375 7.22375,-1.6035 13.08125,-1.6035 l 6.42625,0 0,7.984375 -7.54125,0 c -6.3575,0 -9.5325,1.1045 -9.5325,3.311 l 0,2.514125 c 0,2.08113 3.36875,3.11625 10.09,3.11625 l 9.89625,0 c 4.72125,0 8.71375,0.69388 11.955,2.07025 4.45875,1.88775 6.68875,4.86825 6.68875,8.963 0.0113,0.30713 0.0113,0.79588 0,1.46725 0,0.65963 0,1.14838 0,1.46725 z M 409.09125,58.501 l -39.65375,0 0,-4.106 25.63875,-27.902375 -25.63875,0 0,-8.054125 39.65375,0 0,4.014625 -25.79875,27.995125 25.79875,0 0,8.05275"
       style="fill:#ffffff;fill-opacity:1;fill-rule:nonzero;stroke:none"
       id="path24" /></g></svg>